G04 #@! TF.FileFunction,Soldermask,Top*
%FSLAX46Y46*%
G04 Gerber Fmt 4.6, Leading zero omitted, Abs format (unit mm)*
G04 Created by KiCad (PCBNEW 4.0.4-stable) date 11/28/16 21:20:40*
%MOMM*%
%LPD*%
G01*
G04 APERTURE LIST*
%ADD10C,0.100000*%
%ADD11C,0.254000*%
%ADD12C,3.194000*%
%ADD13O,2.432000X4.210000*%
%ADD14R,1.200100X1.200100*%
%ADD15R,1.600000X1.300000*%
%ADD16C,1.797000*%
%ADD17C,2.432000*%
%ADD18R,1.500000X1.750000*%
%ADD19R,0.950000X0.750000*%
G04 APERTURE END LIST*
D10*
D11*
X164622238Y-128584476D02*
X164670619Y-128439333D01*
X164670619Y-128197429D01*
X164622238Y-128100667D01*
X164573857Y-128052286D01*
X164477095Y-128003905D01*
X164380333Y-128003905D01*
X164283571Y-128052286D01*
X164235190Y-128100667D01*
X164186810Y-128197429D01*
X164138429Y-128390952D01*
X164090048Y-128487714D01*
X164041667Y-128536095D01*
X163944905Y-128584476D01*
X163848143Y-128584476D01*
X163751381Y-128536095D01*
X163703000Y-128487714D01*
X163654619Y-128390952D01*
X163654619Y-128149048D01*
X163703000Y-128003905D01*
X164670619Y-127133048D02*
X164138429Y-127133048D01*
X164041667Y-127181429D01*
X163993286Y-127278191D01*
X163993286Y-127471714D01*
X164041667Y-127568476D01*
X164622238Y-127133048D02*
X164670619Y-127229810D01*
X164670619Y-127471714D01*
X164622238Y-127568476D01*
X164525476Y-127616857D01*
X164428714Y-127616857D01*
X164331952Y-127568476D01*
X164283571Y-127471714D01*
X164283571Y-127229810D01*
X164235190Y-127133048D01*
X164670619Y-126649238D02*
X163993286Y-126649238D01*
X164090048Y-126649238D02*
X164041667Y-126600857D01*
X163993286Y-126504095D01*
X163993286Y-126358953D01*
X164041667Y-126262191D01*
X164138429Y-126213810D01*
X164670619Y-126213810D01*
X164138429Y-126213810D02*
X164041667Y-126165429D01*
X163993286Y-126068667D01*
X163993286Y-125923524D01*
X164041667Y-125826762D01*
X164138429Y-125778381D01*
X164670619Y-125778381D01*
X164670619Y-124520476D02*
X163654619Y-124520476D01*
X163654619Y-124133429D01*
X163703000Y-124036667D01*
X163751381Y-123988286D01*
X163848143Y-123939905D01*
X163993286Y-123939905D01*
X164090048Y-123988286D01*
X164138429Y-124036667D01*
X164186810Y-124133429D01*
X164186810Y-124520476D01*
X164622238Y-123117429D02*
X164670619Y-123214191D01*
X164670619Y-123407714D01*
X164622238Y-123504476D01*
X164525476Y-123552857D01*
X164138429Y-123552857D01*
X164041667Y-123504476D01*
X163993286Y-123407714D01*
X163993286Y-123214191D01*
X164041667Y-123117429D01*
X164138429Y-123069048D01*
X164235190Y-123069048D01*
X164331952Y-123552857D01*
X164670619Y-122633619D02*
X163993286Y-122633619D01*
X164186810Y-122633619D02*
X164090048Y-122585238D01*
X164041667Y-122536857D01*
X163993286Y-122440095D01*
X163993286Y-122343334D01*
X164670619Y-122004667D02*
X163993286Y-122004667D01*
X164186810Y-122004667D02*
X164090048Y-121956286D01*
X164041667Y-121907905D01*
X163993286Y-121811143D01*
X163993286Y-121714382D01*
X163993286Y-121472477D02*
X164670619Y-121230572D01*
X163993286Y-120988668D02*
X164670619Y-121230572D01*
X164912524Y-121327334D01*
X164960905Y-121375715D01*
X165009286Y-121472477D01*
X166448619Y-128536095D02*
X165432619Y-128536095D01*
X166448619Y-127955524D01*
X165432619Y-127955524D01*
X166448619Y-127326571D02*
X166400238Y-127423333D01*
X166351857Y-127471714D01*
X166255095Y-127520095D01*
X165964810Y-127520095D01*
X165868048Y-127471714D01*
X165819667Y-127423333D01*
X165771286Y-127326571D01*
X165771286Y-127181429D01*
X165819667Y-127084667D01*
X165868048Y-127036286D01*
X165964810Y-126987905D01*
X166255095Y-126987905D01*
X166351857Y-127036286D01*
X166400238Y-127084667D01*
X166448619Y-127181429D01*
X166448619Y-127326571D01*
X165771286Y-126649238D02*
X166448619Y-126407333D01*
X165771286Y-126165429D01*
X166400238Y-125391334D02*
X166448619Y-125488096D01*
X166448619Y-125681619D01*
X166400238Y-125778381D01*
X166303476Y-125826762D01*
X165916429Y-125826762D01*
X165819667Y-125778381D01*
X165771286Y-125681619D01*
X165771286Y-125488096D01*
X165819667Y-125391334D01*
X165916429Y-125342953D01*
X166013190Y-125342953D01*
X166109952Y-125826762D01*
X166448619Y-124907524D02*
X165771286Y-124907524D01*
X165868048Y-124907524D02*
X165819667Y-124859143D01*
X165771286Y-124762381D01*
X165771286Y-124617239D01*
X165819667Y-124520477D01*
X165916429Y-124472096D01*
X166448619Y-124472096D01*
X165916429Y-124472096D02*
X165819667Y-124423715D01*
X165771286Y-124326953D01*
X165771286Y-124181810D01*
X165819667Y-124085048D01*
X165916429Y-124036667D01*
X166448619Y-124036667D01*
X166448619Y-123552857D02*
X165432619Y-123552857D01*
X165819667Y-123552857D02*
X165771286Y-123456095D01*
X165771286Y-123262572D01*
X165819667Y-123165810D01*
X165868048Y-123117429D01*
X165964810Y-123069048D01*
X166255095Y-123069048D01*
X166351857Y-123117429D01*
X166400238Y-123165810D01*
X166448619Y-123262572D01*
X166448619Y-123456095D01*
X166400238Y-123552857D01*
X166400238Y-122246572D02*
X166448619Y-122343334D01*
X166448619Y-122536857D01*
X166400238Y-122633619D01*
X166303476Y-122682000D01*
X165916429Y-122682000D01*
X165819667Y-122633619D01*
X165771286Y-122536857D01*
X165771286Y-122343334D01*
X165819667Y-122246572D01*
X165916429Y-122198191D01*
X166013190Y-122198191D01*
X166109952Y-122682000D01*
X166448619Y-121762762D02*
X165771286Y-121762762D01*
X165964810Y-121762762D02*
X165868048Y-121714381D01*
X165819667Y-121666000D01*
X165771286Y-121569238D01*
X165771286Y-121472477D01*
X165529381Y-120408096D02*
X165481000Y-120359715D01*
X165432619Y-120262953D01*
X165432619Y-120021049D01*
X165481000Y-119924287D01*
X165529381Y-119875906D01*
X165626143Y-119827525D01*
X165722905Y-119827525D01*
X165868048Y-119875906D01*
X166448619Y-120456477D01*
X166448619Y-119827525D01*
X165432619Y-119198572D02*
X165432619Y-119101811D01*
X165481000Y-119005049D01*
X165529381Y-118956668D01*
X165626143Y-118908287D01*
X165819667Y-118859906D01*
X166061571Y-118859906D01*
X166255095Y-118908287D01*
X166351857Y-118956668D01*
X166400238Y-119005049D01*
X166448619Y-119101811D01*
X166448619Y-119198572D01*
X166400238Y-119295334D01*
X166351857Y-119343715D01*
X166255095Y-119392096D01*
X166061571Y-119440477D01*
X165819667Y-119440477D01*
X165626143Y-119392096D01*
X165529381Y-119343715D01*
X165481000Y-119295334D01*
X165432619Y-119198572D01*
X166448619Y-117892287D02*
X166448619Y-118472858D01*
X166448619Y-118182572D02*
X165432619Y-118182572D01*
X165577762Y-118279334D01*
X165674524Y-118376096D01*
X165722905Y-118472858D01*
X165432619Y-117021430D02*
X165432619Y-117214953D01*
X165481000Y-117311715D01*
X165529381Y-117360096D01*
X165674524Y-117456858D01*
X165868048Y-117505239D01*
X166255095Y-117505239D01*
X166351857Y-117456858D01*
X166400238Y-117408477D01*
X166448619Y-117311715D01*
X166448619Y-117118192D01*
X166400238Y-117021430D01*
X166351857Y-116973049D01*
X166255095Y-116924668D01*
X166013190Y-116924668D01*
X165916429Y-116973049D01*
X165868048Y-117021430D01*
X165819667Y-117118192D01*
X165819667Y-117311715D01*
X165868048Y-117408477D01*
X165916429Y-117456858D01*
X166013190Y-117505239D01*
D12*
X161036000Y-78232000D03*
X161036000Y-85852000D03*
X161036000Y-119380000D03*
X161036000Y-127000000D03*
D13*
X159766000Y-54102000D03*
X162306000Y-54102000D03*
D14*
X163388000Y-62214760D03*
X165288000Y-62214760D03*
X164338000Y-60215780D03*
D15*
X165438000Y-64262000D03*
X163238000Y-64262000D03*
D16*
X157734000Y-68300600D03*
X157734000Y-66294000D03*
X157734000Y-64287400D03*
D17*
X157734000Y-70396100D03*
X157734000Y-62191900D03*
D18*
X162288000Y-71991000D03*
X166388000Y-71991000D03*
X166388000Y-69741000D03*
X162288000Y-69741000D03*
D19*
X163663000Y-67585000D03*
X165013000Y-67585000D03*
X165013000Y-67035000D03*
X163663000Y-67035000D03*
M02*
