G04 #@! TF.FileFunction,Legend,Bot*
%FSLAX46Y46*%
G04 Gerber Fmt 4.6, Leading zero omitted, Abs format (unit mm)*
G04 Created by KiCad (PCBNEW 4.0.4-stable) date 11/28/16 21:20:40*
%MOMM*%
%LPD*%
G01*
G04 APERTURE LIST*
%ADD10C,0.100000*%
%ADD11C,0.200000*%
G04 APERTURE END LIST*
D10*
D11*
X156972000Y-126746000D02*
X165100000Y-126746000D01*
X165735000Y-126111000D02*
G75*
G03X165100000Y-125476000I-635000J0D01*
G01*
X156337000Y-126111000D02*
G75*
G03X156972000Y-126746000I635000J0D01*
G01*
X165100000Y-126746000D02*
G75*
G03X165735000Y-126111000I0J635000D01*
G01*
X156972000Y-125476000D02*
G75*
G03X156337000Y-126111000I0J-635000D01*
G01*
X159258000Y-130429000D02*
X159639000Y-127254000D01*
X162814000Y-130429000D02*
X162433000Y-127254000D01*
X162814000Y-130429000D02*
G75*
G03X163195000Y-130810000I381000J0D01*
G01*
X158877000Y-130810000D02*
G75*
G03X159258000Y-130429000I0J381000D01*
G01*
X155067000Y-130937000D02*
X155067000Y-131191000D01*
X167005000Y-130937000D02*
X167005000Y-131191000D01*
X166878000Y-130810000D02*
X155194000Y-130810000D01*
X167005000Y-130937000D02*
G75*
G03X166878000Y-130810000I-127000J0D01*
G01*
X155194000Y-130810000D02*
G75*
G03X155067000Y-130937000I0J-127000D01*
G01*
X154813000Y-131191000D02*
X167259000Y-131191000D01*
X165481000Y-125476000D02*
X156591000Y-125476000D01*
X155575000Y-124460000D02*
X166497000Y-124460000D01*
X154813000Y-131191000D02*
G75*
G03X154305000Y-131699000I0J-508000D01*
G01*
X167767000Y-131699000D02*
G75*
G03X167259000Y-131191000I-508000J0D01*
G01*
X154305000Y-131699000D02*
X167767000Y-131699000D01*
X155575000Y-124460000D02*
X156591000Y-125476000D01*
X166497000Y-124460000D02*
X165481000Y-125476000D01*
X154305000Y-123190000D02*
G75*
G03X155575000Y-124460000I1270000J0D01*
G01*
X166497000Y-124460000D02*
G75*
G03X167767000Y-123190000I0J1270000D01*
G01*
X154305000Y-123190000D02*
X167767000Y-123190000D01*
X161290000Y-57150000D02*
X161290000Y-56388000D01*
X161036000Y-57150000D02*
X161036000Y-56261000D01*
X161925000Y-59309000D02*
X161925000Y-58039000D01*
X161671000Y-59309000D02*
X161671000Y-58801000D01*
X162941000Y-58166000D02*
X162941000Y-56896000D01*
X162687000Y-58166000D02*
X162687000Y-57277000D01*
X161671000Y-58166000D02*
X161290000Y-57150000D01*
X160655000Y-58166000D02*
X161036000Y-57150000D01*
X161163000Y-58674000D02*
G75*
G03X161671000Y-58166000I0J508000D01*
G01*
X160655000Y-58166000D02*
G75*
G03X161163000Y-58674000I508000J0D01*
G01*
X160655000Y-58166000D02*
G75*
G03X161163000Y-58674000I508000J0D01*
G01*
X161163000Y-58674000D02*
G75*
G03X161671000Y-58166000I0J508000D01*
G01*
X160655000Y-58166000D02*
X161036000Y-57150000D01*
X161671000Y-58166000D02*
X161290000Y-57150000D01*
X163322000Y-59182000D02*
X162941000Y-58166000D01*
X162306000Y-59182000D02*
X162687000Y-58166000D01*
X162814000Y-59690000D02*
G75*
G03X163322000Y-59182000I0J508000D01*
G01*
X162306000Y-59182000D02*
G75*
G03X162814000Y-59690000I508000J0D01*
G01*
X162306000Y-59182000D02*
G75*
G03X162814000Y-59690000I508000J0D01*
G01*
X162814000Y-59690000D02*
G75*
G03X163322000Y-59182000I0J508000D01*
G01*
X162306000Y-59182000D02*
X162687000Y-58166000D01*
X163322000Y-59182000D02*
X162941000Y-58166000D01*
X162306000Y-60325000D02*
X161925000Y-59309000D01*
X161290000Y-60325000D02*
X161671000Y-59309000D01*
X161798000Y-60833000D02*
G75*
G03X162306000Y-60325000I0J508000D01*
G01*
X161290000Y-60325000D02*
G75*
G03X161798000Y-60833000I508000J0D01*
G01*
M02*
