G04 #@! TF.FileFunction,Copper,L1,Top,Signal*
%FSLAX46Y46*%
G04 Gerber Fmt 4.6, Leading zero omitted, Abs format (unit mm)*
G04 Created by KiCad (PCBNEW 4.0.7) date 01/07/18 20:48:20*
%MOMM*%
%LPD*%
G01*
G04 APERTURE LIST*
%ADD10C,0.100000*%
%ADD11C,2.794000*%
%ADD12R,0.800100X0.800100*%
%ADD13R,1.200000X0.900000*%
%ADD14C,1.397000*%
%ADD15C,2.032000*%
%ADD16R,1.100000X1.350000*%
%ADD17O,2.032000X5.080000*%
%ADD18C,0.600000*%
%ADD19C,0.250000*%
%ADD20C,0.254000*%
G04 APERTURE END LIST*
D10*
D11*
X161036000Y-78232000D03*
X161036000Y-85852000D03*
X161036000Y-119380000D03*
X161036000Y-127000000D03*
D12*
X163388000Y-62214760D03*
X165288000Y-62214760D03*
X164338000Y-60215780D03*
D13*
X165438000Y-64262000D03*
X163238000Y-64262000D03*
D14*
X157734000Y-68300600D03*
X157734000Y-66294000D03*
X157734000Y-64287400D03*
D15*
X157734000Y-70396100D03*
X157734000Y-62191900D03*
D16*
X162034000Y-71991000D03*
X166134000Y-71991000D03*
X166134000Y-69741000D03*
X162034000Y-69741000D03*
D17*
X159766000Y-54864000D03*
X162306000Y-54864000D03*
D18*
X159766000Y-58420000D03*
X164338000Y-61341000D03*
D19*
X159766000Y-55880000D02*
X159766000Y-58420000D01*
X165288000Y-62214760D02*
X165211760Y-62214760D01*
X165211760Y-62214760D02*
X164338000Y-61341000D01*
X166134000Y-71991000D02*
X167023000Y-71991000D01*
X166260780Y-60215780D02*
X164338000Y-60215780D01*
X167132000Y-61087000D02*
X166260780Y-60215780D01*
X167132000Y-71882000D02*
X167132000Y-61087000D01*
X167023000Y-71991000D02*
X167132000Y-71882000D01*
X164338000Y-60215780D02*
X164338000Y-57912000D01*
X164338000Y-57912000D02*
X162306000Y-55880000D01*
X157734000Y-64287400D02*
X159537400Y-64287400D01*
X161018000Y-71991000D02*
X162034000Y-71991000D01*
X160274000Y-71247000D02*
X161018000Y-71991000D01*
X160274000Y-65024000D02*
X160274000Y-71247000D01*
X159537400Y-64287400D02*
X160274000Y-65024000D01*
X162288000Y-71991000D02*
X164138000Y-71991000D01*
X164138000Y-71991000D02*
X166388000Y-69741000D01*
X163238000Y-64262000D02*
X163238000Y-62364760D01*
X163238000Y-62364760D02*
X163388000Y-62214760D01*
X162034000Y-69741000D02*
X162034000Y-69614000D01*
X162034000Y-69614000D02*
X165438000Y-66210000D01*
X165438000Y-66210000D02*
X165438000Y-64262000D01*
D20*
G36*
X158240675Y-52645988D02*
X158115000Y-53277798D01*
X158115000Y-56450202D01*
X158240675Y-57082012D01*
X158598567Y-57617635D01*
X158986596Y-57876908D01*
X158973808Y-57889673D01*
X158831162Y-58233201D01*
X158830838Y-58605167D01*
X158972883Y-58948943D01*
X159235673Y-59212192D01*
X159579201Y-59354838D01*
X159951167Y-59355162D01*
X160294943Y-59213117D01*
X160558192Y-58950327D01*
X160700838Y-58606799D01*
X160701162Y-58234833D01*
X160559117Y-57891057D01*
X160545157Y-57877073D01*
X160933433Y-57617635D01*
X161036000Y-57464133D01*
X161138567Y-57617635D01*
X161674190Y-57975527D01*
X162306000Y-58101202D01*
X162937810Y-57975527D01*
X163170947Y-57819749D01*
X163578000Y-58226802D01*
X163578000Y-59292767D01*
X163486509Y-59351640D01*
X163341519Y-59563840D01*
X163290510Y-59815730D01*
X163290510Y-60615830D01*
X163334788Y-60851147D01*
X163452830Y-61034589D01*
X163403162Y-61154201D01*
X163403151Y-61167270D01*
X162987950Y-61167270D01*
X162752633Y-61211548D01*
X162536509Y-61350620D01*
X162391519Y-61562820D01*
X162340510Y-61814710D01*
X162340510Y-62614810D01*
X162384788Y-62850127D01*
X162478000Y-62994983D01*
X162478000Y-63194666D01*
X162402683Y-63208838D01*
X162186559Y-63347910D01*
X162041569Y-63560110D01*
X161990560Y-63812000D01*
X161990560Y-64712000D01*
X162034838Y-64947317D01*
X162173910Y-65163441D01*
X162386110Y-65308431D01*
X162638000Y-65359440D01*
X163838000Y-65359440D01*
X164073317Y-65315162D01*
X164289441Y-65176090D01*
X164337134Y-65106289D01*
X164373910Y-65163441D01*
X164586110Y-65308431D01*
X164678000Y-65327039D01*
X164678000Y-65895198D01*
X162154638Y-68418560D01*
X161484000Y-68418560D01*
X161248683Y-68462838D01*
X161034000Y-68600983D01*
X161034000Y-65024000D01*
X160976148Y-64733161D01*
X160811401Y-64486599D01*
X160074801Y-63749999D01*
X159828239Y-63585252D01*
X159537400Y-63527400D01*
X158859536Y-63527400D01*
X158796415Y-63464169D01*
X159132834Y-63128337D01*
X159384713Y-62521745D01*
X159385286Y-61864937D01*
X159134466Y-61257905D01*
X158670437Y-60793066D01*
X158063845Y-60541187D01*
X157407037Y-60540614D01*
X156800005Y-60791434D01*
X156335166Y-61255463D01*
X156083287Y-61862055D01*
X156082714Y-62518863D01*
X156333534Y-63125895D01*
X156671193Y-63464144D01*
X156604173Y-63531047D01*
X156400732Y-64020987D01*
X156400269Y-64551486D01*
X156602854Y-65041780D01*
X156977647Y-65417227D01*
X157078859Y-65459254D01*
X157734000Y-66114395D01*
X158388635Y-65459760D01*
X158488380Y-65418546D01*
X158860174Y-65047400D01*
X159222598Y-65047400D01*
X159514000Y-65338802D01*
X159514000Y-71247000D01*
X159571852Y-71537839D01*
X159736599Y-71784401D01*
X160480599Y-72528401D01*
X160727161Y-72693148D01*
X160846121Y-72716811D01*
X160880838Y-72901317D01*
X161019910Y-73117441D01*
X161232110Y-73262431D01*
X161484000Y-73313440D01*
X162584000Y-73313440D01*
X162819317Y-73269162D01*
X163035441Y-73130090D01*
X163180431Y-72917890D01*
X163214227Y-72751000D01*
X164138000Y-72751000D01*
X164428839Y-72693148D01*
X164675401Y-72528401D01*
X164936560Y-72267242D01*
X164936560Y-72666000D01*
X164980838Y-72901317D01*
X165119910Y-73117441D01*
X165332110Y-73262431D01*
X165584000Y-73313440D01*
X166684000Y-73313440D01*
X166919317Y-73269162D01*
X167135441Y-73130090D01*
X167280431Y-72917890D01*
X167311000Y-72766936D01*
X167311000Y-131116000D01*
X154761000Y-131116000D01*
X154761000Y-127402416D01*
X159003648Y-127402416D01*
X159312350Y-128149532D01*
X159883462Y-128721641D01*
X160630037Y-129031646D01*
X161438416Y-129032352D01*
X162185532Y-128723650D01*
X162757641Y-128152538D01*
X163067646Y-127405963D01*
X163068352Y-126597584D01*
X162759650Y-125850468D01*
X162188538Y-125278359D01*
X161441963Y-124968354D01*
X160633584Y-124967648D01*
X159886468Y-125276350D01*
X159314359Y-125847462D01*
X159004354Y-126594037D01*
X159003648Y-127402416D01*
X154761000Y-127402416D01*
X154761000Y-119782416D01*
X159003648Y-119782416D01*
X159312350Y-120529532D01*
X159883462Y-121101641D01*
X160630037Y-121411646D01*
X161438416Y-121412352D01*
X162185532Y-121103650D01*
X162757641Y-120532538D01*
X163067646Y-119785963D01*
X163068352Y-118977584D01*
X162759650Y-118230468D01*
X162188538Y-117658359D01*
X161441963Y-117348354D01*
X160633584Y-117347648D01*
X159886468Y-117656350D01*
X159314359Y-118227462D01*
X159004354Y-118974037D01*
X159003648Y-119782416D01*
X154761000Y-119782416D01*
X154761000Y-87291556D01*
X159776050Y-87291556D01*
X159923256Y-87599625D01*
X160676746Y-87892423D01*
X161484929Y-87874586D01*
X162148744Y-87599625D01*
X162295950Y-87291556D01*
X161036000Y-86031605D01*
X159776050Y-87291556D01*
X154761000Y-87291556D01*
X154761000Y-85492746D01*
X158995577Y-85492746D01*
X159013414Y-86300929D01*
X159288375Y-86964744D01*
X159596444Y-87111950D01*
X160856395Y-85852000D01*
X161215605Y-85852000D01*
X162475556Y-87111950D01*
X162783625Y-86964744D01*
X163076423Y-86211254D01*
X163058586Y-85403071D01*
X162783625Y-84739256D01*
X162475556Y-84592050D01*
X161215605Y-85852000D01*
X160856395Y-85852000D01*
X159596444Y-84592050D01*
X159288375Y-84739256D01*
X158995577Y-85492746D01*
X154761000Y-85492746D01*
X154761000Y-84412444D01*
X159776050Y-84412444D01*
X161036000Y-85672395D01*
X162295950Y-84412444D01*
X162148744Y-84104375D01*
X161395254Y-83811577D01*
X160587071Y-83829414D01*
X159923256Y-84104375D01*
X159776050Y-84412444D01*
X154761000Y-84412444D01*
X154761000Y-79671556D01*
X159776050Y-79671556D01*
X159923256Y-79979625D01*
X160676746Y-80272423D01*
X161484929Y-80254586D01*
X162148744Y-79979625D01*
X162295950Y-79671556D01*
X161036000Y-78411605D01*
X159776050Y-79671556D01*
X154761000Y-79671556D01*
X154761000Y-77872746D01*
X158995577Y-77872746D01*
X159013414Y-78680929D01*
X159288375Y-79344744D01*
X159596444Y-79491950D01*
X160856395Y-78232000D01*
X161215605Y-78232000D01*
X162475556Y-79491950D01*
X162783625Y-79344744D01*
X163076423Y-78591254D01*
X163058586Y-77783071D01*
X162783625Y-77119256D01*
X162475556Y-76972050D01*
X161215605Y-78232000D01*
X160856395Y-78232000D01*
X159596444Y-76972050D01*
X159288375Y-77119256D01*
X158995577Y-77872746D01*
X154761000Y-77872746D01*
X154761000Y-76792444D01*
X159776050Y-76792444D01*
X161036000Y-78052395D01*
X162295950Y-76792444D01*
X162148744Y-76484375D01*
X161395254Y-76191577D01*
X160587071Y-76209414D01*
X159923256Y-76484375D01*
X159776050Y-76792444D01*
X154761000Y-76792444D01*
X154761000Y-70723063D01*
X156082714Y-70723063D01*
X156333534Y-71330095D01*
X156797563Y-71794934D01*
X157404155Y-72046813D01*
X158060963Y-72047386D01*
X158667995Y-71796566D01*
X159132834Y-71332537D01*
X159384713Y-70725945D01*
X159385286Y-70069137D01*
X159134466Y-69462105D01*
X158796807Y-69123856D01*
X158863827Y-69056953D01*
X159067268Y-68567013D01*
X159067731Y-68036514D01*
X158865146Y-67546220D01*
X158490353Y-67170773D01*
X158389141Y-67128746D01*
X157734000Y-66473605D01*
X157079365Y-67128240D01*
X156979620Y-67169454D01*
X156604173Y-67544247D01*
X156400732Y-68034187D01*
X156400269Y-68564686D01*
X156602854Y-69054980D01*
X156671585Y-69123831D01*
X156335166Y-69459663D01*
X156083287Y-70066255D01*
X156082714Y-70723063D01*
X154761000Y-70723063D01*
X154761000Y-66101480D01*
X156388073Y-66101480D01*
X156416852Y-66631199D01*
X156564200Y-66986929D01*
X156799812Y-67048583D01*
X157554395Y-66294000D01*
X157913605Y-66294000D01*
X158668188Y-67048583D01*
X158903800Y-66986929D01*
X159079927Y-66486520D01*
X159051148Y-65956801D01*
X158903800Y-65601071D01*
X158668188Y-65539417D01*
X157913605Y-66294000D01*
X157554395Y-66294000D01*
X156799812Y-65539417D01*
X156564200Y-65601071D01*
X156388073Y-66101480D01*
X154761000Y-66101480D01*
X154761000Y-52901931D01*
X154797144Y-52720223D01*
X154860461Y-52625461D01*
X154955223Y-52562144D01*
X155136930Y-52526000D01*
X158320848Y-52526000D01*
X158240675Y-52645988D01*
X158240675Y-52645988D01*
G37*
X158240675Y-52645988D02*
X158115000Y-53277798D01*
X158115000Y-56450202D01*
X158240675Y-57082012D01*
X158598567Y-57617635D01*
X158986596Y-57876908D01*
X158973808Y-57889673D01*
X158831162Y-58233201D01*
X158830838Y-58605167D01*
X158972883Y-58948943D01*
X159235673Y-59212192D01*
X159579201Y-59354838D01*
X159951167Y-59355162D01*
X160294943Y-59213117D01*
X160558192Y-58950327D01*
X160700838Y-58606799D01*
X160701162Y-58234833D01*
X160559117Y-57891057D01*
X160545157Y-57877073D01*
X160933433Y-57617635D01*
X161036000Y-57464133D01*
X161138567Y-57617635D01*
X161674190Y-57975527D01*
X162306000Y-58101202D01*
X162937810Y-57975527D01*
X163170947Y-57819749D01*
X163578000Y-58226802D01*
X163578000Y-59292767D01*
X163486509Y-59351640D01*
X163341519Y-59563840D01*
X163290510Y-59815730D01*
X163290510Y-60615830D01*
X163334788Y-60851147D01*
X163452830Y-61034589D01*
X163403162Y-61154201D01*
X163403151Y-61167270D01*
X162987950Y-61167270D01*
X162752633Y-61211548D01*
X162536509Y-61350620D01*
X162391519Y-61562820D01*
X162340510Y-61814710D01*
X162340510Y-62614810D01*
X162384788Y-62850127D01*
X162478000Y-62994983D01*
X162478000Y-63194666D01*
X162402683Y-63208838D01*
X162186559Y-63347910D01*
X162041569Y-63560110D01*
X161990560Y-63812000D01*
X161990560Y-64712000D01*
X162034838Y-64947317D01*
X162173910Y-65163441D01*
X162386110Y-65308431D01*
X162638000Y-65359440D01*
X163838000Y-65359440D01*
X164073317Y-65315162D01*
X164289441Y-65176090D01*
X164337134Y-65106289D01*
X164373910Y-65163441D01*
X164586110Y-65308431D01*
X164678000Y-65327039D01*
X164678000Y-65895198D01*
X162154638Y-68418560D01*
X161484000Y-68418560D01*
X161248683Y-68462838D01*
X161034000Y-68600983D01*
X161034000Y-65024000D01*
X160976148Y-64733161D01*
X160811401Y-64486599D01*
X160074801Y-63749999D01*
X159828239Y-63585252D01*
X159537400Y-63527400D01*
X158859536Y-63527400D01*
X158796415Y-63464169D01*
X159132834Y-63128337D01*
X159384713Y-62521745D01*
X159385286Y-61864937D01*
X159134466Y-61257905D01*
X158670437Y-60793066D01*
X158063845Y-60541187D01*
X157407037Y-60540614D01*
X156800005Y-60791434D01*
X156335166Y-61255463D01*
X156083287Y-61862055D01*
X156082714Y-62518863D01*
X156333534Y-63125895D01*
X156671193Y-63464144D01*
X156604173Y-63531047D01*
X156400732Y-64020987D01*
X156400269Y-64551486D01*
X156602854Y-65041780D01*
X156977647Y-65417227D01*
X157078859Y-65459254D01*
X157734000Y-66114395D01*
X158388635Y-65459760D01*
X158488380Y-65418546D01*
X158860174Y-65047400D01*
X159222598Y-65047400D01*
X159514000Y-65338802D01*
X159514000Y-71247000D01*
X159571852Y-71537839D01*
X159736599Y-71784401D01*
X160480599Y-72528401D01*
X160727161Y-72693148D01*
X160846121Y-72716811D01*
X160880838Y-72901317D01*
X161019910Y-73117441D01*
X161232110Y-73262431D01*
X161484000Y-73313440D01*
X162584000Y-73313440D01*
X162819317Y-73269162D01*
X163035441Y-73130090D01*
X163180431Y-72917890D01*
X163214227Y-72751000D01*
X164138000Y-72751000D01*
X164428839Y-72693148D01*
X164675401Y-72528401D01*
X164936560Y-72267242D01*
X164936560Y-72666000D01*
X164980838Y-72901317D01*
X165119910Y-73117441D01*
X165332110Y-73262431D01*
X165584000Y-73313440D01*
X166684000Y-73313440D01*
X166919317Y-73269162D01*
X167135441Y-73130090D01*
X167280431Y-72917890D01*
X167311000Y-72766936D01*
X167311000Y-131116000D01*
X154761000Y-131116000D01*
X154761000Y-127402416D01*
X159003648Y-127402416D01*
X159312350Y-128149532D01*
X159883462Y-128721641D01*
X160630037Y-129031646D01*
X161438416Y-129032352D01*
X162185532Y-128723650D01*
X162757641Y-128152538D01*
X163067646Y-127405963D01*
X163068352Y-126597584D01*
X162759650Y-125850468D01*
X162188538Y-125278359D01*
X161441963Y-124968354D01*
X160633584Y-124967648D01*
X159886468Y-125276350D01*
X159314359Y-125847462D01*
X159004354Y-126594037D01*
X159003648Y-127402416D01*
X154761000Y-127402416D01*
X154761000Y-119782416D01*
X159003648Y-119782416D01*
X159312350Y-120529532D01*
X159883462Y-121101641D01*
X160630037Y-121411646D01*
X161438416Y-121412352D01*
X162185532Y-121103650D01*
X162757641Y-120532538D01*
X163067646Y-119785963D01*
X163068352Y-118977584D01*
X162759650Y-118230468D01*
X162188538Y-117658359D01*
X161441963Y-117348354D01*
X160633584Y-117347648D01*
X159886468Y-117656350D01*
X159314359Y-118227462D01*
X159004354Y-118974037D01*
X159003648Y-119782416D01*
X154761000Y-119782416D01*
X154761000Y-87291556D01*
X159776050Y-87291556D01*
X159923256Y-87599625D01*
X160676746Y-87892423D01*
X161484929Y-87874586D01*
X162148744Y-87599625D01*
X162295950Y-87291556D01*
X161036000Y-86031605D01*
X159776050Y-87291556D01*
X154761000Y-87291556D01*
X154761000Y-85492746D01*
X158995577Y-85492746D01*
X159013414Y-86300929D01*
X159288375Y-86964744D01*
X159596444Y-87111950D01*
X160856395Y-85852000D01*
X161215605Y-85852000D01*
X162475556Y-87111950D01*
X162783625Y-86964744D01*
X163076423Y-86211254D01*
X163058586Y-85403071D01*
X162783625Y-84739256D01*
X162475556Y-84592050D01*
X161215605Y-85852000D01*
X160856395Y-85852000D01*
X159596444Y-84592050D01*
X159288375Y-84739256D01*
X158995577Y-85492746D01*
X154761000Y-85492746D01*
X154761000Y-84412444D01*
X159776050Y-84412444D01*
X161036000Y-85672395D01*
X162295950Y-84412444D01*
X162148744Y-84104375D01*
X161395254Y-83811577D01*
X160587071Y-83829414D01*
X159923256Y-84104375D01*
X159776050Y-84412444D01*
X154761000Y-84412444D01*
X154761000Y-79671556D01*
X159776050Y-79671556D01*
X159923256Y-79979625D01*
X160676746Y-80272423D01*
X161484929Y-80254586D01*
X162148744Y-79979625D01*
X162295950Y-79671556D01*
X161036000Y-78411605D01*
X159776050Y-79671556D01*
X154761000Y-79671556D01*
X154761000Y-77872746D01*
X158995577Y-77872746D01*
X159013414Y-78680929D01*
X159288375Y-79344744D01*
X159596444Y-79491950D01*
X160856395Y-78232000D01*
X161215605Y-78232000D01*
X162475556Y-79491950D01*
X162783625Y-79344744D01*
X163076423Y-78591254D01*
X163058586Y-77783071D01*
X162783625Y-77119256D01*
X162475556Y-76972050D01*
X161215605Y-78232000D01*
X160856395Y-78232000D01*
X159596444Y-76972050D01*
X159288375Y-77119256D01*
X158995577Y-77872746D01*
X154761000Y-77872746D01*
X154761000Y-76792444D01*
X159776050Y-76792444D01*
X161036000Y-78052395D01*
X162295950Y-76792444D01*
X162148744Y-76484375D01*
X161395254Y-76191577D01*
X160587071Y-76209414D01*
X159923256Y-76484375D01*
X159776050Y-76792444D01*
X154761000Y-76792444D01*
X154761000Y-70723063D01*
X156082714Y-70723063D01*
X156333534Y-71330095D01*
X156797563Y-71794934D01*
X157404155Y-72046813D01*
X158060963Y-72047386D01*
X158667995Y-71796566D01*
X159132834Y-71332537D01*
X159384713Y-70725945D01*
X159385286Y-70069137D01*
X159134466Y-69462105D01*
X158796807Y-69123856D01*
X158863827Y-69056953D01*
X159067268Y-68567013D01*
X159067731Y-68036514D01*
X158865146Y-67546220D01*
X158490353Y-67170773D01*
X158389141Y-67128746D01*
X157734000Y-66473605D01*
X157079365Y-67128240D01*
X156979620Y-67169454D01*
X156604173Y-67544247D01*
X156400732Y-68034187D01*
X156400269Y-68564686D01*
X156602854Y-69054980D01*
X156671585Y-69123831D01*
X156335166Y-69459663D01*
X156083287Y-70066255D01*
X156082714Y-70723063D01*
X154761000Y-70723063D01*
X154761000Y-66101480D01*
X156388073Y-66101480D01*
X156416852Y-66631199D01*
X156564200Y-66986929D01*
X156799812Y-67048583D01*
X157554395Y-66294000D01*
X157913605Y-66294000D01*
X158668188Y-67048583D01*
X158903800Y-66986929D01*
X159079927Y-66486520D01*
X159051148Y-65956801D01*
X158903800Y-65601071D01*
X158668188Y-65539417D01*
X157913605Y-66294000D01*
X157554395Y-66294000D01*
X156799812Y-65539417D01*
X156564200Y-65601071D01*
X156388073Y-66101480D01*
X154761000Y-66101480D01*
X154761000Y-52901931D01*
X154797144Y-52720223D01*
X154860461Y-52625461D01*
X154955223Y-52562144D01*
X155136930Y-52526000D01*
X158320848Y-52526000D01*
X158240675Y-52645988D01*
M02*
